<?xml version="1.0" encoding="utf-8"?>
<!-- Generator: Adobe Illustrator 15.0.0, SVG Export Plug-In  -->
<!DOCTYPE svg PUBLIC "-//W3C//DTD SVG 1.1//EN" "http://www.w3.org/Graphics/SVG/1.1/DTD/svg11.dtd" [
	<!ENTITY ns_flows "http://ns.adobe.com/Flows/1.0/">
]>
<svg version="1.1"
	 xmlns="http://www.w3.org/2000/svg" xmlns:xlink="http://www.w3.org/1999/xlink" xmlns:a="http://ns.adobe.com/AdobeSVGViewerExtensions/3.0/"
	 x="0px" y="0px" width="126px" height="126px" viewBox="0.25 0.25 126 126"
	 overflow="visible" enable-background="new 0.25 0.25 126 126" xml:space="preserve">
<defs>
</defs>
<g id="XMLID_1_">
	<g>
		<polygon fill="#B71E45" points="125.795,37.024 125.795,89.026 89.026,125.799 37.02,125.799 71.56,89.026 71.569,71.625 
			89.026,54.563 71.564,54.554 71.556,37.024 89.026,0.25 		"/>
		<polygon fill="#FFFFFF" points="89.026,0.25 71.556,37.024 71.564,54.554 89.026,54.563 71.569,71.625 71.56,89.026 
			37.02,125.799 54.042,89.026 54.09,71.604 36.955,71.612 54.095,54.559 54.09,37.037 		"/>
		<polygon fill="#EFD416" points="89.026,0.25 54.09,37.037 54.095,54.559 36.955,71.612 54.09,71.604 54.042,89.026 37.02,125.799 
			0.25,89.026 0.25,37.024 37.02,0.25 		"/>
	</g>
	<g>
	</g>
</g>
</svg>
