<?xml version="1.0" encoding="utf-8"?>
<!-- Generator: Adobe Illustrator 15.0.0, SVG Export Plug-In . SVG Version: 6.00 Build 0)  -->
<!DOCTYPE svg PUBLIC "-//W3C//DTD SVG 1.1//EN" "http://www.w3.org/Graphics/SVG/1.1/DTD/svg11.dtd">
<svg version="1.1" id="Layer_1" xmlns="http://www.w3.org/2000/svg" xmlns:xlink="http://www.w3.org/1999/xlink" x="0px" y="0px"
	 width="100px" height="100px" viewBox="0 0 100 100" enable-background="new 0 0 100 100" xml:space="preserve">
<g>
	<g id="XMLID_4_">
		<g>
			<polygon fill="#3F403F" points="100,29.288 100,70.713 70.713,100 29.288,100 56.801,70.709 56.808,56.853 70.713,43.259 
				56.805,43.252 56.798,29.292 70.713,0 			"/>
			<polygon fill="#FFFFFF" points="70.713,0 56.798,29.292 56.805,43.252 70.713,43.259 56.808,56.853 56.801,70.709 29.288,100 
				42.848,70.713 42.886,56.835 29.236,56.843 42.889,43.255 42.886,29.299 			"/>
			<polygon fill="#CCCCCC" points="70.713,0 42.886,29.299 42.889,43.255 29.236,56.843 42.886,56.835 42.848,70.713 29.288,100 
				0,70.713 0,29.288 29.288,0 			"/>
		</g>
		<g>
		</g>
	</g>
</g>
</svg>
